<?xml version="1.0" encoding="UTF-8"?>
<!DOCTYPE svg PUBLIC "-//W3C//DTD SVG 1.1//EN" "http://www.w3.org/Graphics/SVG/1.1/DTD/svg11.dtd">
<svg xmlns="http://www.w3.org/2000/svg" version="1.1" width="512px" height="512px" style="shape-rendering:geometricPrecision; text-rendering:geometricPrecision; image-rendering:optimizeQuality; fill-rule:evenodd; clip-rule:evenodd" xmlns:xlink="http://www.w3.org/1999/xlink">
<g><path style="opacity:0.991" fill="#000000" d="M 365.5,-0.5 C 372.167,-0.5 378.833,-0.5 385.5,-0.5C 403.484,4.65165 414.984,16.3183 420,34.5C 420.667,144.5 420.667,254.5 420,364.5C 410.867,427.276 377.701,472.109 320.5,499C 305.223,505.157 289.556,509.323 273.5,511.5C 261.5,511.5 249.5,511.5 237.5,511.5C 174.879,502.04 130.046,468.707 103,411.5C 96.7476,396.409 92.7476,380.743 91,364.5C 90.3333,345.167 90.3333,325.833 91,306.5C 97.3031,283.937 112.136,272.271 135.5,271.5C 158.864,272.271 173.697,283.937 180,306.5C 180.333,319.833 180.667,333.167 181,346.5C 185.241,391.908 210.075,416.908 255.5,421.5C 300.925,416.908 325.759,391.908 330,346.5C 330.333,242.5 330.667,138.5 331,34.5C 336.016,16.3183 347.516,4.65165 365.5,-0.5 Z"/></g>
</svg>
